<svg width="1561" height="1721" xmlns="http://www.w3.org/2000/svg" xmlns:xlink="http://www.w3.org/1999/xlink" fill="#ffffff"><defs><style>
  text {
    fill: #212529;
    font-family: Helvetica Neue, Helvetica, Arial, sans-serif;
    font-size: 16px;
  }

  marker, text {
    fill-opacity: 1;
  }

  * {
    overflow: visible;
  }
</style></defs><svg x="1465" y="765" width="80" height="140" class="Libararian" fill="#ffffff"><g><rect width="100%" height="100%" fill="none"></rect><g stroke="black" stroke-width="2"><circle cx="40" cy="25" r="15" stroke="black" fill="white" class="sc-iGgWBj fYmGgq"></circle><line x1="40" y1="40" x2="40" y2="80" stroke="black" class="sc-imWYAI kESMEa"></line><line x1="10" y1="50" x2="70" y2="50" stroke="black" class="sc-imWYAI kESMEa"></line><line x1="40" y1="80" x2="10" y2="110" stroke="black" class="sc-imWYAI kESMEa"></line><line x1="40" y1="80" x2="70" y2="110" stroke="black" class="sc-imWYAI kESMEa"></line></g><text x="40" y="130" dominant-baseline="middle" text-anchor="middle" font-weight="bold" pointer-events="none">Libararian</text></g></svg><svg x="1215" y="785" width="160" height="100" class="Open Application" fill="#ffffff"><g><ellipse cx="50%" cy="50%" rx="50%" ry="50%" stroke="black" fill="white" class="sc-kAyceB ldFMTf"></ellipse><text x="50%" y="50%" dominant-baseline="middle" text-anchor="middle" font-weight="bold" pointer-events="none">Open Application</text></g></svg><svg x="875" y="445" width="160" height="100" class="Books" fill="#ffffff"><g><ellipse cx="50%" cy="50%" rx="50%" ry="50%" stroke="black" fill="white" class="sc-kAyceB ldFMTf"></ellipse><text x="50%" y="50%" dominant-baseline="middle" text-anchor="middle" font-weight="bold" pointer-events="none">Books</text></g></svg><svg x="895" y="895" width="160" height="100" class="Customer" fill="#ffffff"><g><ellipse cx="50%" cy="50%" rx="50%" ry="50%" stroke="black" fill="white" class="sc-kAyceB ldFMTf"></ellipse><text x="50%" y="50%" dominant-baseline="middle" text-anchor="middle" font-weight="bold" pointer-events="none">Customer</text></g></svg><svg x="995" y="1225" width="160" height="100" class="Reporting" fill="#ffffff"><g><ellipse cx="50%" cy="50%" rx="50%" ry="50%" stroke="black" fill="white" class="sc-kAyceB ldFMTf"></ellipse><text x="50%" y="50%" dominant-baseline="middle" text-anchor="middle" font-weight="bold" pointer-events="none">Reporting</text></g></svg><svg x="35" y="15" width="770" height="1040" class="Data Management" fill="#ffffff"><g><rect width="100%" height="100%" stroke="black" fill="white" class="sc-fqkvVR uHYUy"></rect><text x="50%" y="16" dominant-baseline="middle" text-anchor="middle" font-weight="bold" pointer-events="none">Data Management</text></g></svg><svg x="95" y="135" width="160" height="100" class="Deleting a Book" fill="#ffffff"><g><ellipse cx="50%" cy="50%" rx="50%" ry="50%" stroke="black" fill="white" class="sc-kAyceB ldFMTf"></ellipse><text x="50%" y="50%" dominant-baseline="middle" text-anchor="middle" font-weight="bold" pointer-events="none">Deleting a Book</text></g></svg><svg x="95" y="245" width="160" height="100" class="Add Book" fill="#ffffff"><g><ellipse cx="50%" cy="50%" rx="50%" ry="50%" stroke="black" fill="white" class="sc-kAyceB ldFMTf"></ellipse><text x="50%" y="50%" dominant-baseline="middle" text-anchor="middle" font-weight="bold" pointer-events="none">Add Book</text></g></svg><svg x="95" y="355" width="160" height="100" class="Modify Book" fill="#ffffff"><g><ellipse cx="50%" cy="50%" rx="50%" ry="50%" stroke="black" fill="white" class="sc-kAyceB ldFMTf"></ellipse><text x="50%" y="50%" dominant-baseline="middle" text-anchor="middle" font-weight="bold" pointer-events="none">Modify Book</text></g></svg><svg x="95" y="485" width="160" height="100" class="Delete Customer" fill="#ffffff"><g><ellipse cx="50%" cy="50%" rx="50%" ry="50%" stroke="black" fill="white" class="sc-kAyceB ldFMTf"></ellipse><text x="50%" y="50%" dominant-baseline="middle" text-anchor="middle" font-weight="bold" pointer-events="none">Delete Customer</text></g></svg><svg x="95" y="595" width="160" height="100" class="Add Customer" fill="#ffffff"><g><ellipse cx="50%" cy="50%" rx="50%" ry="50%" stroke="black" fill="white" class="sc-kAyceB ldFMTf"></ellipse><text x="50%" y="50%" dominant-baseline="middle" text-anchor="middle" font-weight="bold" pointer-events="none">Add Customer</text></g></svg><svg x="95" y="705" width="160" height="100" class="Modify Customer" fill="#ffffff"><g><ellipse cx="50%" cy="50%" rx="50%" ry="50%" stroke="black" fill="white" class="sc-kAyceB ldFMTf"></ellipse><text x="50%" y="50%" dominant-baseline="middle" text-anchor="middle" font-weight="bold" pointer-events="none">Modify Customer</text></g></svg><svg x="495" y="185" width="160" height="100" class="type search" fill="#ffffff"><g><ellipse cx="50%" cy="50%" rx="50%" ry="50%" stroke="black" fill="white" class="sc-kAyceB ldFMTf"></ellipse><text x="50%" y="50%" dominant-baseline="middle" text-anchor="middle" font-weight="bold" pointer-events="none">type search</text></g></svg><svg x="15" y="1095" width="770" height="380" class="Reporting" fill="#ffffff"><g><rect width="100%" height="100%" stroke="black" fill="white" class="sc-fqkvVR uHYUy"></rect><text x="50%" y="16" dominant-baseline="middle" text-anchor="middle" font-weight="bold" pointer-events="none">Reporting</text></g></svg><svg x="595" y="1105" width="170" height="100" class="Create a Borrowing" fill="#ffffff"><g><ellipse cx="50%" cy="50%" rx="50%" ry="50%" stroke="black" fill="white" class="sc-kAyceB ldFMTf"></ellipse><text x="50%" y="50%" dominant-baseline="middle" text-anchor="middle" font-weight="bold" pointer-events="none">Create a Borrowing</text></g></svg><svg x="285" y="1165" width="180" height="100" class="Update the Data Base" fill="#ffffff"><g><ellipse cx="50%" cy="50%" rx="50%" ry="50%" stroke="black" fill="white" class="sc-kAyceB ldFMTf"></ellipse><text x="50%" y="50%" dominant-baseline="middle" text-anchor="middle" font-weight="bold" pointer-events="none">Update the Data Base</text></g></svg><svg x="585" y="1345" width="160" height="100" class="Delete Entry" fill="#ffffff"><g><ellipse cx="50%" cy="50%" rx="50%" ry="50%" stroke="black" fill="white" class="sc-kAyceB ldFMTf"></ellipse><text x="50%" y="50%" dominant-baseline="middle" text-anchor="middle" font-weight="bold" pointer-events="none">Delete Entry</text></g></svg><svg x="245" y="1345" width="160" height="100" class="check return date" fill="#ffffff"><g><ellipse cx="50%" cy="50%" rx="50%" ry="50%" stroke="black" fill="white" class="sc-kAyceB ldFMTf"></ellipse><text x="50%" y="50%" dominant-baseline="middle" text-anchor="middle" font-weight="bold" pointer-events="none">check return date</text></g></svg><svg x="45" y="1265" width="160" height="100" class="Calculate fee" fill="#ffffff"><g><ellipse cx="50%" cy="50%" rx="50%" ry="50%" stroke="black" fill="white" class="sc-kAyceB ldFMTf"></ellipse><text x="50%" y="50%" dominant-baseline="middle" text-anchor="middle" font-weight="bold" pointer-events="none">Calculate fee</text></g></svg><svg x="615" y="1225" width="160" height="100" class="Modify entry" fill="#ffffff"><g><ellipse cx="50%" cy="50%" rx="50%" ry="50%" stroke="black" fill="white" class="sc-kAyceB ldFMTf"></ellipse><text x="50%" y="50%" dominant-baseline="middle" text-anchor="middle" font-weight="bold" pointer-events="none">Modify entry</text></g></svg><svg x="345" y="1565" width="80" height="140" class="System" fill="#ffffff"><g><rect width="100%" height="100%" fill="none"></rect><g stroke="black" stroke-width="2"><circle cx="40" cy="25" r="15" stroke="black" fill="white" class="sc-iGgWBj fYmGgq"></circle><line x1="40" y1="40" x2="40" y2="80" stroke="black" class="sc-imWYAI kESMEa"></line><line x1="10" y1="50" x2="70" y2="50" stroke="black" class="sc-imWYAI kESMEa"></line><line x1="40" y1="80" x2="10" y2="110" stroke="black" class="sc-imWYAI kESMEa"></line><line x1="40" y1="80" x2="70" y2="110" stroke="black" class="sc-imWYAI kESMEa"></line></g><text x="40" y="130" dominant-baseline="middle" text-anchor="middle" font-weight="bold" pointer-events="none">System</text></g></svg><svg x="1375" y="835" width="90" height="1" class="" fill="#ffffff"><g><path id="textpath-a2ec45ba-c4e3-444b-a3a2-0709678f0b0b" d="
        M 90 -10
        L 0 -10
    "></path><text dominant-baseline="middle" text-anchor="middle" font-weight="bold" pointer-events="none" dy="20px" transform="
            translate(45, 0)
            rotate(180)
            translate(-45, 0)
          "><textPath xlink:href="#textpath-a2ec45ba-c4e3-444b-a3a2-0709678f0b0b" startOffset="50%"></textPath></text><polyline points="90 0,0 0" stroke-width="1" stroke="black" fill="none" class="sc-aXZVg eMElBf"></polyline></g></svg><svg x="1035" y="495" width="180" height="340" class="" fill="#ffffff"><g><path id="textpath-b5a0a596-9995-4852-949c-02ac5b38c049" d="
        M 180 330
        L 0 -10
    "></path><text dominant-baseline="middle" text-anchor="middle" font-weight="bold" pointer-events="none" dy="20px" transform="
            translate(90, 170)
            rotate(180)
            translate(-90, -170)
          "><textPath xlink:href="#textpath-b5a0a596-9995-4852-949c-02ac5b38c049" startOffset="50%"></textPath></text><polyline points="180 340,0 0" stroke-width="1" stroke="black" fill="none" class="sc-aXZVg eMElBf"></polyline></g></svg><svg x="1055" y="835" width="160" height="110" class="" fill="#ffffff"><g><path id="textpath-a6857857-3fdf-4e3c-8f48-1caaca9c4284" d="
        M 160 -10
        L 0 100
    "></path><text dominant-baseline="middle" text-anchor="middle" font-weight="bold" pointer-events="none" dy="20px" transform="
            translate(80, 55)
            rotate(180)
            translate(-80, -55)
          "><textPath xlink:href="#textpath-a6857857-3fdf-4e3c-8f48-1caaca9c4284" startOffset="50%"></textPath></text><polyline points="160 0,0 110" stroke-width="1" stroke="black" fill="none" class="sc-aXZVg eMElBf"></polyline></g></svg><svg x="1155" y="835" width="60" height="440" class="" fill="#ffffff"><g><path id="textpath-a5523f61-6e0c-48b1-82c7-6407291ee275" d="
        M 60 -10
        L 0 430
    "></path><text dominant-baseline="middle" text-anchor="middle" font-weight="bold" pointer-events="none" dy="20px" transform="
            translate(30.000000000000004, 220)
            rotate(180)
            translate(-30.000000000000004, -220)
          "><textPath xlink:href="#textpath-a5523f61-6e0c-48b1-82c7-6407291ee275" startOffset="50%"></textPath></text><polyline points="60 0,0 440" stroke-width="1" stroke="black" fill="none" class="sc-aXZVg eMElBf"></polyline></g></svg><svg x="255" y="295" width="620" height="200" class="" fill="#ffffff"><g><path id="textpath-23c76ce0-4387-4d93-960d-31b96ff4f806" d="
        M 620 190
        L 0 -10
    "></path><text dominant-baseline="middle" text-anchor="middle" font-weight="bold" pointer-events="none" dy="20px" transform="
            translate(310, 100)
            rotate(180)
            translate(-310, -100)
          "><textPath xlink:href="#textpath-23c76ce0-4387-4d93-960d-31b96ff4f806" startOffset="50%"></textPath></text><polyline points="620 200,0 0" stroke-width="1" stroke="black" fill="none" class="sc-aXZVg eMElBf"></polyline></g></svg><svg x="255" y="405" width="620" height="90" class="" fill="#ffffff"><g><path id="textpath-74f9d96d-ebce-4282-960d-2ff6c1f75a2a" d="
        M 620 80
        L 0 -10
    "></path><text dominant-baseline="middle" text-anchor="middle" font-weight="bold" pointer-events="none" dy="20px" transform="
            translate(310, 45)
            rotate(180)
            translate(-310, -45)
          "><textPath xlink:href="#textpath-74f9d96d-ebce-4282-960d-2ff6c1f75a2a" startOffset="50%"></textPath></text><polyline points="620 90,0 0" stroke-width="1" stroke="black" fill="none" class="sc-aXZVg eMElBf"></polyline></g></svg><svg x="255" y="535" width="640" height="410" class="" fill="#ffffff"><g><path id="textpath-30f636bf-100b-4a05-bdbb-4ef09647dc87" d="
        M 640 400
        L 0 -10
    "></path><text dominant-baseline="middle" text-anchor="middle" font-weight="bold" pointer-events="none" dy="20px" transform="
            translate(320, 205)
            rotate(180)
            translate(-320, -205)
          "><textPath xlink:href="#textpath-30f636bf-100b-4a05-bdbb-4ef09647dc87" startOffset="50%"></textPath></text><polyline points="640 410,0 0" stroke-width="1" stroke="black" fill="none" class="sc-aXZVg eMElBf"></polyline></g></svg><svg x="255" y="645" width="640" height="300" class="" fill="#ffffff"><g><path id="textpath-6e2b9033-ca14-4a0f-b42a-64dc2764dbfb" d="
        M 640 290
        L 0 -10
    "></path><text dominant-baseline="middle" text-anchor="middle" font-weight="bold" pointer-events="none" dy="20px" transform="
            translate(320, 150)
            rotate(180)
            translate(-320, -150)
          "><textPath xlink:href="#textpath-6e2b9033-ca14-4a0f-b42a-64dc2764dbfb" startOffset="50%"></textPath></text><polyline points="640 300,0 0" stroke-width="1" stroke="black" fill="none" class="sc-aXZVg eMElBf"></polyline></g></svg><svg x="255" y="755" width="640" height="190" class="" fill="#ffffff"><g><path id="textpath-c80c99ce-947e-4a1a-8d89-034337f77b5a" d="
        M 640 180
        L 0 -10
    "></path><text dominant-baseline="middle" text-anchor="middle" font-weight="bold" pointer-events="none" dy="20px" transform="
            translate(320, 94.99999999999999)
            rotate(180)
            translate(-320, -94.99999999999999)
          "><textPath xlink:href="#textpath-c80c99ce-947e-4a1a-8d89-034337f77b5a" startOffset="50%"></textPath></text><polyline points="640 190,0 0" stroke-width="1" stroke="black" fill="none" class="sc-aXZVg eMElBf"></polyline></g></svg><svg x="465" y="1155" width="130" height="60" class="" fill="#ffffff"><g><path id="textpath-2d968094-948f-4862-a725-7fd8f30d5c1d" d="
        M 130 -10
        L 0 50
    "></path><text dominant-baseline="middle" text-anchor="middle" font-weight="bold" pointer-events="none" dy="20px" transform="
            translate(65, 30)
            rotate(180)
            translate(-65, -30)
          "><textPath xlink:href="#textpath-2d968094-948f-4862-a725-7fd8f30d5c1d" startOffset="50%"></textPath></text><polyline points="130 0,0 60" stroke-width="1" stroke="black" fill="none" class="sc-aXZVg eMElBf"></polyline></g></svg><svg x="765" y="1155" width="230" height="120" class="" fill="#ffffff"><g><path id="textpath-5d814e84-c6a1-486c-9aa4-8b45d6ede9c4" d="
        M 230 110
        L 0 -10
    "></path><text dominant-baseline="middle" text-anchor="middle" font-weight="bold" pointer-events="none" dy="20px" transform="
            translate(115, 60)
            rotate(180)
            translate(-115, -60)
          "><textPath xlink:href="#textpath-5d814e84-c6a1-486c-9aa4-8b45d6ede9c4" startOffset="50%"></textPath></text><polyline points="230 120,0 0" stroke-width="1" stroke="black" fill="none" class="sc-aXZVg eMElBf"></polyline></g></svg><svg x="745" y="1275" width="250" height="120" class="" fill="#ffffff"><g><path id="textpath-4764640d-3355-4433-9613-7db5af927445" d="
        M 250 -10
        L 0 110
    "></path><text dominant-baseline="middle" text-anchor="middle" font-weight="bold" pointer-events="none" dy="20px" transform="
            translate(125, 60)
            rotate(180)
            translate(-125, -60)
          "><textPath xlink:href="#textpath-4764640d-3355-4433-9613-7db5af927445" startOffset="50%"></textPath></text><polyline points="250 0,0 120" stroke-width="1" stroke="black" fill="none" class="sc-aXZVg eMElBf"></polyline></g></svg><svg x="325" y="1445" width="60" height="120" class="" fill="#ffffff"><g><path id="textpath-4a574019-83fa-4027-80f1-784d76c46556" d="
        M 60 110
        L 0 -10
    "></path><text dominant-baseline="middle" text-anchor="middle" font-weight="bold" pointer-events="none" dy="20px" transform="
            translate(30, 60)
            rotate(180)
            translate(-30, -60)
          "><textPath xlink:href="#textpath-4a574019-83fa-4027-80f1-784d76c46556" startOffset="50%"></textPath></text><polyline points="60 120,0 0" stroke-width="1" stroke="black" fill="none" class="sc-aXZVg eMElBf"></polyline></g></svg><svg x="385" y="1445" width="280" height="120" class="" fill="#ffffff"><g><path id="textpath-e9784cea-fdc7-44f3-9cf5-8a4f1b90d5a0" d="
        M 0 110
        L 280 -10
    "></path><text dominant-baseline="middle" text-anchor="middle" font-weight="bold" pointer-events="none" dy="20px"><textPath xlink:href="#textpath-e9784cea-fdc7-44f3-9cf5-8a4f1b90d5a0" startOffset="50%"></textPath></text><polyline points="0 120,280 0" stroke-width="1" stroke="black" fill="none" class="sc-aXZVg eMElBf"></polyline></g></svg><svg x="375" y="1265" width="210" height="130" class="" fill="#ffffff"><g><path id="textpath-994273e9-5d28-49ef-96e3-b5e5f486a7d6" d="
        M 210 120
        L 0 -10
    "></path><text dominant-baseline="middle" text-anchor="middle" font-weight="bold" pointer-events="none" dy="20px" transform="
            translate(105, 65)
            rotate(180)
            translate(-105, -65)
          "><textPath xlink:href="#textpath-994273e9-5d28-49ef-96e3-b5e5f486a7d6" startOffset="50%"></textPath></text><polyline points="210 130,0 0" stroke-width="1" stroke="black" fill="none" class="sc-aXZVg eMElBf"></polyline></g></svg><svg x="205" y="1315" width="40" height="80" class="" fill="#ffffff"><g><path id="textpath-92488b21-fa0d-44c5-8122-63ca2c4e83fb" d="
        M 40 70
        L 0 -10
    "></path><text dominant-baseline="middle" text-anchor="middle" font-weight="bold" pointer-events="none" dy="20px" transform="
            translate(20, 40)
            rotate(180)
            translate(-20, -40)
          "><textPath xlink:href="#textpath-92488b21-fa0d-44c5-8122-63ca2c4e83fb" startOffset="50%"></textPath></text><polyline points="40 80,0 0" stroke-width="1" stroke="black" fill="none" class="sc-aXZVg eMElBf"></polyline></g></svg><svg x="125" y="1265" width="250" height="1" class="" fill="#ffffff"><g><path id="textpath-e09f07db-dbbe-4d73-af35-e1e9eeb5b6b4" d="
        M 0 -10
        L 250 -10
    "></path><text dominant-baseline="middle" text-anchor="middle" font-weight="bold" pointer-events="none" dy="20px"><textPath xlink:href="#textpath-e09f07db-dbbe-4d73-af35-e1e9eeb5b6b4" startOffset="50%"></textPath></text><polyline points="0 0,250 0" stroke-width="1" stroke="black" fill="none" class="sc-aXZVg eMElBf"></polyline></g></svg><svg x="775" y="1275" width="220" height="1" class="" fill="#ffffff"><g><path id="textpath-2b8ff619-a720-4ce2-afe8-d6a297cbfb6c" d="
        M 220 -10
        L 0 -10
    "></path><text dominant-baseline="middle" text-anchor="middle" font-weight="bold" pointer-events="none" dy="20px" transform="
            translate(110, 0)
            rotate(180)
            translate(-110, 0)
          "><textPath xlink:href="#textpath-2b8ff619-a720-4ce2-afe8-d6a297cbfb6c" startOffset="50%"></textPath></text><polyline points="220 0,0 0" stroke-width="1" stroke="black" fill="none" class="sc-aXZVg eMElBf"></polyline></g></svg><svg x="465" y="1215" width="150" height="60" class="" fill="#ffffff"><g><path id="textpath-255a987f-67d1-4399-b7d7-d71f80056738" d="
        M 150 50
        L 0 -10
    "></path><text dominant-baseline="middle" text-anchor="middle" font-weight="bold" pointer-events="none" dy="20px" transform="
            translate(75, 30)
            rotate(180)
            translate(-75, -30)
          "><textPath xlink:href="#textpath-255a987f-67d1-4399-b7d7-d71f80056738" startOffset="50%"></textPath></text><polyline points="150 60,0 0" stroke-width="1" stroke="black" fill="none" class="sc-aXZVg eMElBf"></polyline></g></svg><svg x="255" y="185" width="620" height="310" class="" fill="#ffffff"><g><path id="textpath-837280c8-6251-4e87-a1f6-b4e902d5caa3" d="
        M 620 300
        L 0 -10
    "></path><text dominant-baseline="middle" text-anchor="middle" font-weight="bold" pointer-events="none" dy="20px" transform="
            translate(310, 155)
            rotate(180)
            translate(-310, -155)
          "><textPath xlink:href="#textpath-837280c8-6251-4e87-a1f6-b4e902d5caa3" startOffset="50%"></textPath></text><polyline points="620 310,0 0" stroke-width="1" stroke="black" fill="none" class="sc-aXZVg eMElBf"></polyline></g></svg><svg x="655" y="235" width="220" height="260" class="" fill="#ffffff"><g><path id="textpath-c1123b26-0bc9-44c2-acb7-09a7b6cdb2da" d="
        M 220 250
        L 0 -10
    "></path><text dominant-baseline="middle" text-anchor="middle" font-weight="bold" pointer-events="none" dy="20px" transform="
            translate(110, 130)
            rotate(180)
            translate(-110, -130)
          "><textPath xlink:href="#textpath-c1123b26-0bc9-44c2-acb7-09a7b6cdb2da" startOffset="50%"></textPath></text><polyline points="220 260,0 0" stroke-width="1" stroke="black" fill="none" class="sc-aXZVg eMElBf"></polyline></g></svg></svg>